<mxfile host="Electron" modified="2024-04-18T15:38:51.086Z" agent="Mozilla/5.0 (X11; Linux x86_64) AppleWebKit/537.36 (KHTML, like Gecko) draw.io/24.2.5 Chrome/120.0.6099.109 Electron/28.1.0 Safari/537.36" etag="QdBG8Q9HdXNZ7NKhIfVq" version="24.2.5" type="device">
  <diagram id="C5RBs43oDa-KdzZeNtuy" name="Page-1">
    <mxGraphModel dx="880" dy="576" grid="1" gridSize="10" guides="1" tooltips="1" connect="1" arrows="1" fold="1" page="1" pageScale="1" pageWidth="827" pageHeight="1169" math="0" shadow="0">
      <root>
        <mxCell id="WIyWlLk6GJQsqaUBKTNV-0" />
        <mxCell id="WIyWlLk6GJQsqaUBKTNV-1" parent="WIyWlLk6GJQsqaUBKTNV-0" />
        <mxCell id="GGgyJeZRFEDgUU8fPMDe-105" value="" style="rounded=0;whiteSpace=wrap;html=1;fontFamily=Helvetica;fontSize=11;fontColor=default;labelBackgroundColor=default;strokeColor=none;fillColor=#000000;" parent="WIyWlLk6GJQsqaUBKTNV-1" vertex="1">
          <mxGeometry x="190" y="130" width="410" height="140" as="geometry" />
        </mxCell>
        <mxCell id="GGgyJeZRFEDgUU8fPMDe-96" value="" style="rounded=0;whiteSpace=wrap;html=1;fontFamily=Helvetica;fontSize=11;labelBackgroundColor=default;fillColor=#1A1A1A;strokeColor=none;fontColor=#ffffff;" parent="WIyWlLk6GJQsqaUBKTNV-1" vertex="1">
          <mxGeometry x="190" y="260" width="310" height="460" as="geometry" />
        </mxCell>
        <mxCell id="GGgyJeZRFEDgUU8fPMDe-107" value="" style="rounded=0;whiteSpace=wrap;html=1;fontFamily=Helvetica;fontSize=11;fontColor=default;labelBackgroundColor=default;strokeColor=none;fillColor=#000000;" parent="WIyWlLk6GJQsqaUBKTNV-1" vertex="1">
          <mxGeometry x="380" y="570" width="130" height="150" as="geometry" />
        </mxCell>
        <mxCell id="GGgyJeZRFEDgUU8fPMDe-98" value="" style="rounded=0;whiteSpace=wrap;html=1;fontFamily=Helvetica;fontSize=11;fontColor=default;labelBackgroundColor=default;strokeColor=none;fillColor=#4D4D4D;" parent="WIyWlLk6GJQsqaUBKTNV-1" vertex="1">
          <mxGeometry x="500" y="260" width="100" height="460" as="geometry" />
        </mxCell>
        <mxCell id="GGgyJeZRFEDgUU8fPMDe-97" value="" style="rounded=0;whiteSpace=wrap;html=1;fontFamily=Helvetica;fontSize=11;fontColor=default;labelBackgroundColor=default;fillColor=#333333;strokeColor=none;" parent="WIyWlLk6GJQsqaUBKTNV-1" vertex="1">
          <mxGeometry x="440" y="560" width="70" height="130" as="geometry" />
        </mxCell>
        <mxCell id="GGgyJeZRFEDgUU8fPMDe-2" value="conv" style="shape=cube;whiteSpace=wrap;html=1;boundedLbl=1;backgroundOutline=1;darkOpacity=0.05;darkOpacity2=0.1;size=10;fillColor=none;strokeWidth=2;" parent="WIyWlLk6GJQsqaUBKTNV-1" vertex="1">
          <mxGeometry x="520" y="340" width="50" height="40" as="geometry" />
        </mxCell>
        <mxCell id="GGgyJeZRFEDgUU8fPMDe-51" style="edgeStyle=orthogonalEdgeStyle;rounded=0;orthogonalLoop=1;jettySize=auto;html=1;exitX=0.5;exitY=1;exitDx=0;exitDy=0;entryX=0.5;entryY=0;entryDx=0;entryDy=0;endArrow=none;endFill=0;strokeWidth=2;" parent="WIyWlLk6GJQsqaUBKTNV-1" source="GGgyJeZRFEDgUU8fPMDe-9" target="GGgyJeZRFEDgUU8fPMDe-12" edge="1">
          <mxGeometry relative="1" as="geometry" />
        </mxCell>
        <mxCell id="GGgyJeZRFEDgUU8fPMDe-9" value="1728" style="rounded=1;whiteSpace=wrap;html=1;fillColor=none;dashed=1;dashPattern=1 1;strokeWidth=2;" parent="WIyWlLk6GJQsqaUBKTNV-1" vertex="1">
          <mxGeometry x="510" y="490" width="80" height="20" as="geometry" />
        </mxCell>
        <mxCell id="GGgyJeZRFEDgUU8fPMDe-54" style="edgeStyle=orthogonalEdgeStyle;rounded=0;orthogonalLoop=1;jettySize=auto;html=1;exitX=0.5;exitY=1;exitDx=0;exitDy=0;entryX=0.5;entryY=0;entryDx=0;entryDy=0;endArrow=none;endFill=0;strokeWidth=2;" parent="WIyWlLk6GJQsqaUBKTNV-1" source="GGgyJeZRFEDgUU8fPMDe-10" target="GGgyJeZRFEDgUU8fPMDe-13" edge="1">
          <mxGeometry relative="1" as="geometry" />
        </mxCell>
        <mxCell id="GGgyJeZRFEDgUU8fPMDe-10" value="512" style="rounded=1;whiteSpace=wrap;html=1;fillColor=none;dashed=1;dashPattern=1 1;strokeWidth=2;" parent="WIyWlLk6GJQsqaUBKTNV-1" vertex="1">
          <mxGeometry x="510" y="550" width="80" height="20" as="geometry" />
        </mxCell>
        <mxCell id="GGgyJeZRFEDgUU8fPMDe-50" style="edgeStyle=orthogonalEdgeStyle;rounded=0;orthogonalLoop=1;jettySize=auto;html=1;exitX=0.5;exitY=1;exitDx=0;exitDy=0;entryX=0.5;entryY=0;entryDx=0;entryDy=0;endArrow=none;endFill=0;strokeWidth=2;" parent="WIyWlLk6GJQsqaUBKTNV-1" source="GGgyJeZRFEDgUU8fPMDe-11" target="GGgyJeZRFEDgUU8fPMDe-9" edge="1">
          <mxGeometry relative="1" as="geometry" />
        </mxCell>
        <mxCell id="GGgyJeZRFEDgUU8fPMDe-11" value="flat" style="rhombus;whiteSpace=wrap;html=1;fillColor=none;strokeWidth=2;" parent="WIyWlLk6GJQsqaUBKTNV-1" vertex="1">
          <mxGeometry x="525" y="450" width="50" height="30" as="geometry" />
        </mxCell>
        <mxCell id="GGgyJeZRFEDgUU8fPMDe-52" style="edgeStyle=orthogonalEdgeStyle;rounded=0;orthogonalLoop=1;jettySize=auto;html=1;exitX=0.5;exitY=1;exitDx=0;exitDy=0;entryX=0.5;entryY=0;entryDx=0;entryDy=0;endArrow=none;endFill=0;strokeWidth=2;" parent="WIyWlLk6GJQsqaUBKTNV-1" source="GGgyJeZRFEDgUU8fPMDe-12" target="GGgyJeZRFEDgUU8fPMDe-10" edge="1">
          <mxGeometry relative="1" as="geometry" />
        </mxCell>
        <mxCell id="GGgyJeZRFEDgUU8fPMDe-12" value="dense" style="rounded=0;whiteSpace=wrap;html=1;fillColor=none;strokeWidth=2;" parent="WIyWlLk6GJQsqaUBKTNV-1" vertex="1">
          <mxGeometry x="530" y="520" width="40" height="20" as="geometry" />
        </mxCell>
        <mxCell id="GGgyJeZRFEDgUU8fPMDe-55" style="edgeStyle=orthogonalEdgeStyle;rounded=0;orthogonalLoop=1;jettySize=auto;html=1;exitX=0.5;exitY=1;exitDx=0;exitDy=0;entryX=0.75;entryY=0;entryDx=0;entryDy=0;endArrow=none;endFill=0;strokeWidth=2;" parent="WIyWlLk6GJQsqaUBKTNV-1" source="GGgyJeZRFEDgUU8fPMDe-13" edge="1">
          <mxGeometry relative="1" as="geometry">
            <mxPoint x="550" y="610" as="targetPoint" />
          </mxGeometry>
        </mxCell>
        <mxCell id="GGgyJeZRFEDgUU8fPMDe-13" value="dense" style="rounded=0;whiteSpace=wrap;html=1;fillColor=none;strokeWidth=2;" parent="WIyWlLk6GJQsqaUBKTNV-1" vertex="1">
          <mxGeometry x="530" y="580" width="40" height="20" as="geometry" />
        </mxCell>
        <mxCell id="GGgyJeZRFEDgUU8fPMDe-56" style="edgeStyle=orthogonalEdgeStyle;rounded=0;orthogonalLoop=1;jettySize=auto;html=1;exitX=0.75;exitY=1;exitDx=0;exitDy=0;entryX=0.5;entryY=0;entryDx=0;entryDy=0;endArrow=none;endFill=0;strokeWidth=2;" parent="WIyWlLk6GJQsqaUBKTNV-1" target="GGgyJeZRFEDgUU8fPMDe-15" edge="1">
          <mxGeometry relative="1" as="geometry">
            <mxPoint x="550" y="630" as="sourcePoint" />
          </mxGeometry>
        </mxCell>
        <mxCell id="GGgyJeZRFEDgUU8fPMDe-14" value="64" style="rounded=1;whiteSpace=wrap;html=1;fillColor=#4D4D4D;dashed=1;dashPattern=1 1;strokeWidth=2;" parent="WIyWlLk6GJQsqaUBKTNV-1" vertex="1">
          <mxGeometry x="480" y="610" width="80" height="20" as="geometry" />
        </mxCell>
        <mxCell id="GGgyJeZRFEDgUU8fPMDe-57" style="edgeStyle=orthogonalEdgeStyle;rounded=0;orthogonalLoop=1;jettySize=auto;html=1;exitX=0.5;exitY=1;exitDx=0;exitDy=0;entryX=0.5;entryY=0;entryDx=0;entryDy=0;endArrow=openAsync;endFill=0;strokeWidth=2;" parent="WIyWlLk6GJQsqaUBKTNV-1" source="GGgyJeZRFEDgUU8fPMDe-15" target="GGgyJeZRFEDgUU8fPMDe-16" edge="1">
          <mxGeometry relative="1" as="geometry" />
        </mxCell>
        <mxCell id="GGgyJeZRFEDgUU8fPMDe-15" value="dense" style="rounded=0;whiteSpace=wrap;html=1;fillColor=none;strokeWidth=2;" parent="WIyWlLk6GJQsqaUBKTNV-1" vertex="1">
          <mxGeometry x="530" y="640" width="40" height="20" as="geometry" />
        </mxCell>
        <mxCell id="GGgyJeZRFEDgUU8fPMDe-16" value="prediction&lt;div&gt;10&lt;/div&gt;" style="rounded=1;whiteSpace=wrap;html=1;fillColor=none;dashed=1;dashPattern=1 1;strokeWidth=2;" parent="WIyWlLk6GJQsqaUBKTNV-1" vertex="1">
          <mxGeometry x="520" y="670" width="60" height="40" as="geometry" />
        </mxCell>
        <mxCell id="GGgyJeZRFEDgUU8fPMDe-17" value="encoder" style="rounded=0;whiteSpace=wrap;html=1;fillColor=none;" parent="WIyWlLk6GJQsqaUBKTNV-1" vertex="1">
          <mxGeometry x="450" y="580" width="50" height="20" as="geometry" />
        </mxCell>
        <mxCell id="GGgyJeZRFEDgUU8fPMDe-18" value="decoder" style="rounded=0;whiteSpace=wrap;html=1;fillColor=none;" parent="WIyWlLk6GJQsqaUBKTNV-1" vertex="1">
          <mxGeometry x="450" y="660" width="50" height="20" as="geometry" />
        </mxCell>
        <mxCell id="GGgyJeZRFEDgUU8fPMDe-63" style="edgeStyle=orthogonalEdgeStyle;rounded=0;orthogonalLoop=1;jettySize=auto;html=1;exitX=0.169;exitY=0.011;exitDx=0;exitDy=0;entryX=0.75;entryY=1;entryDx=0;entryDy=0;endArrow=none;endFill=0;exitPerimeter=0;" parent="WIyWlLk6GJQsqaUBKTNV-1" source="GGgyJeZRFEDgUU8fPMDe-19" target="GGgyJeZRFEDgUU8fPMDe-20" edge="1">
          <mxGeometry relative="1" as="geometry" />
        </mxCell>
        <mxCell id="GGgyJeZRFEDgUU8fPMDe-64" style="edgeStyle=orthogonalEdgeStyle;rounded=0;orthogonalLoop=1;jettySize=auto;html=1;exitX=0.167;exitY=1.011;exitDx=0;exitDy=0;entryX=0.75;entryY=0;entryDx=0;entryDy=0;endArrow=none;endFill=0;exitPerimeter=0;" parent="WIyWlLk6GJQsqaUBKTNV-1" source="GGgyJeZRFEDgUU8fPMDe-19" target="GGgyJeZRFEDgUU8fPMDe-21" edge="1">
          <mxGeometry relative="1" as="geometry" />
        </mxCell>
        <mxCell id="GGgyJeZRFEDgUU8fPMDe-19" value="features&lt;div&gt;256&lt;/div&gt;" style="rounded=1;whiteSpace=wrap;html=1;fillColor=#333333;dashed=1;dashPattern=1 1;" parent="WIyWlLk6GJQsqaUBKTNV-1" vertex="1">
          <mxGeometry x="410" y="610" width="60" height="40" as="geometry" />
        </mxCell>
        <mxCell id="GGgyJeZRFEDgUU8fPMDe-81" value="Ã—" style="edgeStyle=orthogonalEdgeStyle;rounded=1;orthogonalLoop=1;jettySize=auto;html=1;exitX=0.5;exitY=0;exitDx=0;exitDy=0;endArrow=none;endFill=0;curved=0;labelBackgroundColor=#1A1A1A;" parent="WIyWlLk6GJQsqaUBKTNV-1" source="GGgyJeZRFEDgUU8fPMDe-20" edge="1">
          <mxGeometry x="0.8462" relative="1" as="geometry">
            <mxPoint x="330" y="530" as="targetPoint" />
            <Array as="points">
              <mxPoint x="410" y="530" />
            </Array>
            <mxPoint as="offset" />
          </mxGeometry>
        </mxCell>
        <mxCell id="GGgyJeZRFEDgUU8fPMDe-20" value="dense" style="rounded=0;whiteSpace=wrap;html=1;fillColor=none;" parent="WIyWlLk6GJQsqaUBKTNV-1" vertex="1">
          <mxGeometry x="390" y="580" width="40" height="20" as="geometry" />
        </mxCell>
        <mxCell id="GGgyJeZRFEDgUU8fPMDe-80" value="Ã—" style="rounded=1;orthogonalLoop=1;jettySize=auto;html=1;exitX=0.25;exitY=0;exitDx=0;exitDy=0;edgeStyle=orthogonalEdgeStyle;endArrow=none;endFill=0;curved=0;labelPosition=center;verticalLabelPosition=middle;align=center;verticalAlign=middle;labelBackgroundColor=#1A1A1A;labelBorderColor=none;textShadow=0;horizontal=1;" parent="WIyWlLk6GJQsqaUBKTNV-1" source="GGgyJeZRFEDgUU8fPMDe-21" edge="1">
          <mxGeometry x="0.7778" relative="1" as="geometry">
            <mxPoint x="330" y="630" as="targetPoint" />
            <Array as="points">
              <mxPoint x="400" y="630" />
              <mxPoint x="330" y="630" />
            </Array>
            <mxPoint as="offset" />
          </mxGeometry>
        </mxCell>
        <mxCell id="GGgyJeZRFEDgUU8fPMDe-21" value="dense" style="rounded=0;whiteSpace=wrap;html=1;fillColor=none;" parent="WIyWlLk6GJQsqaUBKTNV-1" vertex="1">
          <mxGeometry x="390" y="660" width="40" height="20" as="geometry" />
        </mxCell>
        <mxCell id="GGgyJeZRFEDgUU8fPMDe-65" style="edgeStyle=orthogonalEdgeStyle;rounded=0;orthogonalLoop=1;jettySize=auto;html=1;exitX=0.5;exitY=1;exitDx=0;exitDy=0;entryX=0.5;entryY=0;entryDx=0;entryDy=0;endArrow=openAsync;endFill=0;" parent="WIyWlLk6GJQsqaUBKTNV-1" source="GGgyJeZRFEDgUU8fPMDe-23" target="GGgyJeZRFEDgUU8fPMDe-24" edge="1">
          <mxGeometry relative="1" as="geometry" />
        </mxCell>
        <mxCell id="GGgyJeZRFEDgUU8fPMDe-92" style="edgeStyle=orthogonalEdgeStyle;curved=0;rounded=1;orthogonalLoop=1;jettySize=auto;html=1;exitX=0;exitY=0.5;exitDx=0;exitDy=0;entryX=1;entryY=0.5;entryDx=0;entryDy=0;strokeColor=default;align=center;verticalAlign=middle;fontFamily=Helvetica;fontSize=11;fontColor=default;labelBackgroundColor=default;endArrow=openAsync;endFill=0;strokeWidth=2;" parent="WIyWlLk6GJQsqaUBKTNV-1" source="GGgyJeZRFEDgUU8fPMDe-23" target="GGgyJeZRFEDgUU8fPMDe-91" edge="1">
          <mxGeometry relative="1" as="geometry" />
        </mxCell>
        <mxCell id="yU7wOXFloIceunH0MPtO-6" style="edgeStyle=orthogonalEdgeStyle;rounded=0;orthogonalLoop=1;jettySize=auto;html=1;exitX=0.5;exitY=0;exitDx=0;exitDy=0;entryX=0.5;entryY=1;entryDx=0;entryDy=0;strokeWidth=2;startArrow=openAsync;startFill=0;endArrow=none;endFill=0;" parent="WIyWlLk6GJQsqaUBKTNV-1" source="GGgyJeZRFEDgUU8fPMDe-23" target="yU7wOXFloIceunH0MPtO-1" edge="1">
          <mxGeometry relative="1" as="geometry" />
        </mxCell>
        <mxCell id="GGgyJeZRFEDgUU8fPMDe-23" value="make&lt;div&gt;noisy&lt;/div&gt;" style="rhombus;whiteSpace=wrap;html=1;fillColor=none;strokeWidth=2;" parent="WIyWlLk6GJQsqaUBKTNV-1" vertex="1">
          <mxGeometry x="410" y="260" width="60" height="60" as="geometry" />
        </mxCell>
        <mxCell id="GGgyJeZRFEDgUU8fPMDe-88" style="edgeStyle=orthogonalEdgeStyle;curved=0;rounded=1;orthogonalLoop=1;jettySize=auto;html=1;exitX=0.5;exitY=1;exitDx=0;exitDy=0;entryX=0.5;entryY=0;entryDx=0;entryDy=0;strokeColor=default;align=center;verticalAlign=middle;fontFamily=Helvetica;fontSize=11;fontColor=default;labelBackgroundColor=default;endArrow=none;endFill=0;" parent="WIyWlLk6GJQsqaUBKTNV-1" source="GGgyJeZRFEDgUU8fPMDe-24" target="GGgyJeZRFEDgUU8fPMDe-26" edge="1">
          <mxGeometry relative="1" as="geometry">
            <Array as="points">
              <mxPoint x="440" y="470" />
              <mxPoint x="410" y="470" />
            </Array>
          </mxGeometry>
        </mxCell>
        <mxCell id="GGgyJeZRFEDgUU8fPMDe-89" style="edgeStyle=orthogonalEdgeStyle;curved=0;rounded=1;orthogonalLoop=1;jettySize=auto;html=1;exitX=0.5;exitY=1;exitDx=0;exitDy=0;entryX=0.5;entryY=0;entryDx=0;entryDy=0;strokeColor=default;align=center;verticalAlign=middle;fontFamily=Helvetica;fontSize=11;fontColor=default;labelBackgroundColor=default;endArrow=none;endFill=0;" parent="WIyWlLk6GJQsqaUBKTNV-1" source="GGgyJeZRFEDgUU8fPMDe-24" target="GGgyJeZRFEDgUU8fPMDe-25" edge="1">
          <mxGeometry relative="1" as="geometry">
            <Array as="points">
              <mxPoint x="440" y="470" />
              <mxPoint x="470" y="470" />
            </Array>
          </mxGeometry>
        </mxCell>
        <mxCell id="GGgyJeZRFEDgUU8fPMDe-24" value="time step&lt;div&gt;1&lt;/div&gt;" style="rounded=1;whiteSpace=wrap;html=1;fillColor=none;dashed=1;dashPattern=1 1;" parent="WIyWlLk6GJQsqaUBKTNV-1" vertex="1">
          <mxGeometry x="410" y="410" width="60" height="40" as="geometry" />
        </mxCell>
        <mxCell id="GGgyJeZRFEDgUU8fPMDe-84" value="+" style="edgeStyle=orthogonalEdgeStyle;rounded=1;orthogonalLoop=1;jettySize=auto;html=1;exitX=0.5;exitY=1;exitDx=0;exitDy=0;endArrow=none;endFill=0;flowAnimation=0;curved=0;labelBackgroundColor=#1A1A1A;" parent="WIyWlLk6GJQsqaUBKTNV-1" source="GGgyJeZRFEDgUU8fPMDe-25" edge="1">
          <mxGeometry x="0.92" relative="1" as="geometry">
            <mxPoint x="330" y="620" as="targetPoint" />
            <Array as="points">
              <mxPoint x="470" y="550" />
              <mxPoint x="380" y="550" />
              <mxPoint x="380" y="620" />
            </Array>
            <mxPoint as="offset" />
          </mxGeometry>
        </mxCell>
        <mxCell id="GGgyJeZRFEDgUU8fPMDe-25" value="dense" style="rounded=0;whiteSpace=wrap;html=1;fillColor=none;" parent="WIyWlLk6GJQsqaUBKTNV-1" vertex="1">
          <mxGeometry x="450" y="490" width="40" height="20" as="geometry" />
        </mxCell>
        <mxCell id="GGgyJeZRFEDgUU8fPMDe-82" value="+" style="edgeStyle=orthogonalEdgeStyle;rounded=1;orthogonalLoop=1;jettySize=auto;html=1;exitX=0.5;exitY=1;exitDx=0;exitDy=0;endArrow=none;endFill=0;curved=0;labelBackgroundColor=#1A1A1A;" parent="WIyWlLk6GJQsqaUBKTNV-1" source="GGgyJeZRFEDgUU8fPMDe-26" edge="1">
          <mxGeometry x="0.7778" relative="1" as="geometry">
            <mxPoint x="330" y="520" as="targetPoint" />
            <Array as="points">
              <mxPoint x="410" y="520" />
            </Array>
            <mxPoint as="offset" />
          </mxGeometry>
        </mxCell>
        <mxCell id="GGgyJeZRFEDgUU8fPMDe-26" value="dense" style="rounded=0;whiteSpace=wrap;html=1;fillColor=none;" parent="WIyWlLk6GJQsqaUBKTNV-1" vertex="1">
          <mxGeometry x="390" y="490" width="40" height="20" as="geometry" />
        </mxCell>
        <mxCell id="GGgyJeZRFEDgUU8fPMDe-27" value="unet&lt;div&gt;up&lt;/div&gt;" style="shape=cube;whiteSpace=wrap;html=1;boundedLbl=1;backgroundOutline=1;darkOpacity=0.05;darkOpacity2=0.1;size=10;fillColor=none;strokeWidth=2;" parent="WIyWlLk6GJQsqaUBKTNV-1" vertex="1">
          <mxGeometry x="300" y="570" width="50" height="40" as="geometry" />
        </mxCell>
        <mxCell id="GGgyJeZRFEDgUU8fPMDe-28" value="256Ã—1Ã—1" style="rounded=1;whiteSpace=wrap;html=1;fillColor=none;dashed=1;dashPattern=1 1;strokeWidth=2;" parent="WIyWlLk6GJQsqaUBKTNV-1" vertex="1">
          <mxGeometry x="200" y="680" width="80" height="20" as="geometry" />
        </mxCell>
        <mxCell id="GGgyJeZRFEDgUU8fPMDe-29" value="256Ã—14Ã—14" style="rounded=1;whiteSpace=wrap;html=1;fillColor=none;dashed=1;dashPattern=1 1;strokeWidth=2;" parent="WIyWlLk6GJQsqaUBKTNV-1" vertex="1">
          <mxGeometry x="290" y="540" width="80" height="20" as="geometry" />
        </mxCell>
        <mxCell id="GGgyJeZRFEDgUU8fPMDe-76" style="edgeStyle=orthogonalEdgeStyle;rounded=0;orthogonalLoop=1;jettySize=auto;html=1;exitX=0;exitY=0;exitDx=30;exitDy=40;exitPerimeter=0;entryX=0.5;entryY=0;entryDx=0;entryDy=0;endArrow=none;endFill=0;strokeWidth=2;" parent="WIyWlLk6GJQsqaUBKTNV-1" source="GGgyJeZRFEDgUU8fPMDe-30" target="GGgyJeZRFEDgUU8fPMDe-29" edge="1">
          <mxGeometry relative="1" as="geometry" />
        </mxCell>
        <mxCell id="GGgyJeZRFEDgUU8fPMDe-77" style="edgeStyle=orthogonalEdgeStyle;rounded=0;orthogonalLoop=1;jettySize=auto;html=1;entryX=0.5;entryY=1;entryDx=0;entryDy=0;endArrow=none;endFill=0;strokeWidth=2;" parent="WIyWlLk6GJQsqaUBKTNV-1" target="GGgyJeZRFEDgUU8fPMDe-31" edge="1">
          <mxGeometry relative="1" as="geometry">
            <mxPoint x="330" y="470" as="sourcePoint" />
            <Array as="points">
              <mxPoint x="330" y="470" />
            </Array>
          </mxGeometry>
        </mxCell>
        <mxCell id="GGgyJeZRFEDgUU8fPMDe-30" value="unet&lt;div&gt;up&lt;/div&gt;" style="shape=cube;whiteSpace=wrap;html=1;boundedLbl=1;backgroundOutline=1;darkOpacity=0.05;darkOpacity2=0.1;size=10;fillColor=none;strokeWidth=2;" parent="WIyWlLk6GJQsqaUBKTNV-1" vertex="1">
          <mxGeometry x="300" y="470" width="50" height="40" as="geometry" />
        </mxCell>
        <mxCell id="GGgyJeZRFEDgUU8fPMDe-31" value="128Ã—28Ã—28" style="rounded=1;whiteSpace=wrap;html=1;fillColor=none;dashed=1;dashPattern=1 1;strokeWidth=2;" parent="WIyWlLk6GJQsqaUBKTNV-1" vertex="1">
          <mxGeometry x="290" y="440" width="80" height="20" as="geometry" />
        </mxCell>
        <mxCell id="GGgyJeZRFEDgUU8fPMDe-33" value="conv&lt;div&gt;norm&lt;/div&gt;" style="shape=cube;whiteSpace=wrap;html=1;boundedLbl=1;backgroundOutline=1;darkOpacity=0.05;darkOpacity2=0.1;size=10;fillColor=none;strokeWidth=2;" parent="WIyWlLk6GJQsqaUBKTNV-1" vertex="1">
          <mxGeometry x="300" y="380" width="50" height="40" as="geometry" />
        </mxCell>
        <mxCell id="GGgyJeZRFEDgUU8fPMDe-34" value="conv" style="shape=cube;whiteSpace=wrap;html=1;boundedLbl=1;backgroundOutline=1;darkOpacity=0.05;darkOpacity2=0.1;size=10;labelBackgroundColor=none;fillColor=none;strokeWidth=2;" parent="WIyWlLk6GJQsqaUBKTNV-1" vertex="1">
          <mxGeometry x="300" y="330" width="50" height="40" as="geometry" />
        </mxCell>
        <mxCell id="GGgyJeZRFEDgUU8fPMDe-35" value="conv&lt;div&gt;norm&lt;/div&gt;" style="shape=cube;whiteSpace=wrap;html=1;boundedLbl=1;backgroundOutline=1;darkOpacity=0.05;darkOpacity2=0.1;size=10;fillColor=none;strokeWidth=2;" parent="WIyWlLk6GJQsqaUBKTNV-1" vertex="1">
          <mxGeometry x="210" y="630" width="50" height="40" as="geometry" />
        </mxCell>
        <mxCell id="GGgyJeZRFEDgUU8fPMDe-36" value="256Ã—7Ã—7" style="rounded=1;whiteSpace=wrap;html=1;fillColor=none;dashed=1;dashPattern=1 1;strokeWidth=2;" parent="WIyWlLk6GJQsqaUBKTNV-1" vertex="1">
          <mxGeometry x="200" y="590" width="80" height="20" as="geometry" />
        </mxCell>
        <mxCell id="GGgyJeZRFEDgUU8fPMDe-71" style="edgeStyle=orthogonalEdgeStyle;rounded=0;orthogonalLoop=1;jettySize=auto;html=1;exitX=0.5;exitY=1;exitDx=0;exitDy=0;entryX=0.5;entryY=0;entryDx=0;entryDy=0;endArrow=none;endFill=0;strokeWidth=2;" parent="WIyWlLk6GJQsqaUBKTNV-1" source="GGgyJeZRFEDgUU8fPMDe-37" target="GGgyJeZRFEDgUU8fPMDe-36" edge="1">
          <mxGeometry relative="1" as="geometry" />
        </mxCell>
        <mxCell id="GGgyJeZRFEDgUU8fPMDe-37" value="avg&lt;div&gt;pool&lt;/div&gt;" style="rhombus;whiteSpace=wrap;html=1;fillColor=none;strokeWidth=2;" parent="WIyWlLk6GJQsqaUBKTNV-1" vertex="1">
          <mxGeometry x="210" y="530" width="60" height="50" as="geometry" />
        </mxCell>
        <mxCell id="GGgyJeZRFEDgUU8fPMDe-70" style="edgeStyle=orthogonalEdgeStyle;rounded=0;orthogonalLoop=1;jettySize=auto;html=1;exitX=0;exitY=0;exitDx=30;exitDy=40;exitPerimeter=0;entryX=0.5;entryY=0;entryDx=0;entryDy=0;endArrow=none;endFill=0;strokeWidth=2;" parent="WIyWlLk6GJQsqaUBKTNV-1" source="GGgyJeZRFEDgUU8fPMDe-38" target="GGgyJeZRFEDgUU8fPMDe-37" edge="1">
          <mxGeometry relative="1" as="geometry" />
        </mxCell>
        <mxCell id="GGgyJeZRFEDgUU8fPMDe-38" value="unet&lt;div&gt;down&lt;/div&gt;" style="shape=cube;whiteSpace=wrap;html=1;boundedLbl=1;backgroundOutline=1;darkOpacity=0.05;darkOpacity2=0.1;size=10;fillColor=none;strokeWidth=2;" parent="WIyWlLk6GJQsqaUBKTNV-1" vertex="1">
          <mxGeometry x="210" y="480" width="50" height="40" as="geometry" />
        </mxCell>
        <mxCell id="GGgyJeZRFEDgUU8fPMDe-39" value="128Ã—14Ã—14" style="rounded=1;whiteSpace=wrap;html=1;fillColor=none;dashed=1;dashPattern=1 1;strokeWidth=2;" parent="WIyWlLk6GJQsqaUBKTNV-1" vertex="1">
          <mxGeometry x="200" y="450" width="80" height="20" as="geometry" />
        </mxCell>
        <mxCell id="GGgyJeZRFEDgUU8fPMDe-68" style="edgeStyle=orthogonalEdgeStyle;rounded=0;orthogonalLoop=1;jettySize=auto;html=1;exitX=0;exitY=0;exitDx=30;exitDy=40;exitPerimeter=0;entryX=0.5;entryY=0;entryDx=0;entryDy=0;endArrow=none;endFill=0;strokeWidth=2;" parent="WIyWlLk6GJQsqaUBKTNV-1" source="GGgyJeZRFEDgUU8fPMDe-40" target="GGgyJeZRFEDgUU8fPMDe-39" edge="1">
          <mxGeometry relative="1" as="geometry" />
        </mxCell>
        <mxCell id="GGgyJeZRFEDgUU8fPMDe-40" value="unet&lt;div&gt;down&lt;/div&gt;" style="shape=cube;whiteSpace=wrap;html=1;boundedLbl=1;backgroundOutline=1;darkOpacity=0.05;darkOpacity2=0.1;size=10;fillColor=none;strokeWidth=2;" parent="WIyWlLk6GJQsqaUBKTNV-1" vertex="1">
          <mxGeometry x="210" y="400" width="50" height="40" as="geometry" />
        </mxCell>
        <mxCell id="GGgyJeZRFEDgUU8fPMDe-87" value="&amp;nbsp;cat&amp;nbsp;" style="edgeStyle=orthogonalEdgeStyle;curved=0;rounded=1;orthogonalLoop=1;jettySize=auto;html=1;exitX=0.876;exitY=1.021;exitDx=0;exitDy=0;strokeColor=default;align=center;verticalAlign=middle;fontFamily=Helvetica;fontSize=11;fontColor=default;labelBackgroundColor=#1A1A1A;endArrow=none;endFill=0;exitPerimeter=0;" parent="WIyWlLk6GJQsqaUBKTNV-1" source="GGgyJeZRFEDgUU8fPMDe-41" edge="1">
          <mxGeometry x="0.6346" relative="1" as="geometry">
            <mxPoint x="330" y="430" as="targetPoint" />
            <Array as="points">
              <mxPoint x="270" y="430" />
              <mxPoint x="330" y="430" />
            </Array>
            <mxPoint as="offset" />
          </mxGeometry>
        </mxCell>
        <mxCell id="GGgyJeZRFEDgUU8fPMDe-41" value="128Ã—28Ã—28" style="rounded=1;whiteSpace=wrap;html=1;fillColor=none;dashed=1;dashPattern=1 1;strokeWidth=2;" parent="WIyWlLk6GJQsqaUBKTNV-1" vertex="1">
          <mxGeometry x="200" y="370" width="80" height="20" as="geometry" />
        </mxCell>
        <mxCell id="GGgyJeZRFEDgUU8fPMDe-66" style="edgeStyle=orthogonalEdgeStyle;rounded=0;orthogonalLoop=1;jettySize=auto;html=1;exitX=0;exitY=0;exitDx=30;exitDy=40;exitPerimeter=0;entryX=0.5;entryY=0;entryDx=0;entryDy=0;endArrow=none;endFill=0;strokeWidth=2;" parent="WIyWlLk6GJQsqaUBKTNV-1" source="GGgyJeZRFEDgUU8fPMDe-42" target="GGgyJeZRFEDgUU8fPMDe-41" edge="1">
          <mxGeometry relative="1" as="geometry" />
        </mxCell>
        <mxCell id="GGgyJeZRFEDgUU8fPMDe-94" style="edgeStyle=orthogonalEdgeStyle;curved=0;rounded=0;orthogonalLoop=1;jettySize=auto;html=1;exitX=0.599;exitY=0.009;exitDx=0;exitDy=0;exitPerimeter=0;entryX=0.5;entryY=1;entryDx=0;entryDy=0;strokeColor=default;align=center;verticalAlign=middle;fontFamily=Helvetica;fontSize=11;fontColor=default;labelBackgroundColor=default;endArrow=none;endFill=0;strokeWidth=2;" parent="WIyWlLk6GJQsqaUBKTNV-1" source="GGgyJeZRFEDgUU8fPMDe-42" target="GGgyJeZRFEDgUU8fPMDe-91" edge="1">
          <mxGeometry relative="1" as="geometry" />
        </mxCell>
        <mxCell id="GGgyJeZRFEDgUU8fPMDe-42" value="res&lt;div&gt;conv&lt;/div&gt;" style="shape=cube;whiteSpace=wrap;html=1;boundedLbl=1;backgroundOutline=1;darkOpacity=0.05;darkOpacity2=0.1;size=10;fillColor=none;strokeWidth=2;" parent="WIyWlLk6GJQsqaUBKTNV-1" vertex="1">
          <mxGeometry x="210" y="320" width="50" height="40" as="geometry" />
        </mxCell>
        <mxCell id="GGgyJeZRFEDgUU8fPMDe-59" style="edgeStyle=orthogonalEdgeStyle;rounded=0;orthogonalLoop=1;jettySize=auto;html=1;entryX=0.797;entryY=1.008;entryDx=0;entryDy=0;entryPerimeter=0;endArrow=openAsync;endFill=0;" parent="WIyWlLk6GJQsqaUBKTNV-1" target="GGgyJeZRFEDgUU8fPMDe-17" edge="1">
          <mxGeometry relative="1" as="geometry">
            <mxPoint x="490" y="610" as="sourcePoint" />
          </mxGeometry>
        </mxCell>
        <mxCell id="GGgyJeZRFEDgUU8fPMDe-60" style="edgeStyle=orthogonalEdgeStyle;rounded=0;orthogonalLoop=1;jettySize=auto;html=1;exitX=0.25;exitY=1;exitDx=0;exitDy=0;entryX=0.841;entryY=0;entryDx=0;entryDy=0;entryPerimeter=0;endArrow=none;endFill=0;" parent="WIyWlLk6GJQsqaUBKTNV-1" source="GGgyJeZRFEDgUU8fPMDe-17" target="GGgyJeZRFEDgUU8fPMDe-19" edge="1">
          <mxGeometry relative="1" as="geometry" />
        </mxCell>
        <mxCell id="GGgyJeZRFEDgUU8fPMDe-61" style="edgeStyle=orthogonalEdgeStyle;rounded=0;orthogonalLoop=1;jettySize=auto;html=1;entryX=0.221;entryY=-0.002;entryDx=0;entryDy=0;entryPerimeter=0;endArrow=none;endFill=0;" parent="WIyWlLk6GJQsqaUBKTNV-1" target="GGgyJeZRFEDgUU8fPMDe-18" edge="1">
          <mxGeometry relative="1" as="geometry">
            <mxPoint x="461" y="650" as="sourcePoint" />
          </mxGeometry>
        </mxCell>
        <mxCell id="GGgyJeZRFEDgUU8fPMDe-62" style="edgeStyle=orthogonalEdgeStyle;rounded=0;orthogonalLoop=1;jettySize=auto;html=1;exitX=0.75;exitY=0;exitDx=0;exitDy=0;entryX=0.129;entryY=0.998;entryDx=0;entryDy=0;entryPerimeter=0;endArrow=openAsync;endFill=0;" parent="WIyWlLk6GJQsqaUBKTNV-1" source="GGgyJeZRFEDgUU8fPMDe-18" target="GGgyJeZRFEDgUU8fPMDe-14" edge="1">
          <mxGeometry relative="1" as="geometry" />
        </mxCell>
        <mxCell id="GGgyJeZRFEDgUU8fPMDe-67" style="edgeStyle=orthogonalEdgeStyle;rounded=0;orthogonalLoop=1;jettySize=auto;html=1;exitX=0.5;exitY=1;exitDx=0;exitDy=0;entryX=0.598;entryY=-0.007;entryDx=0;entryDy=0;entryPerimeter=0;endArrow=none;endFill=0;strokeWidth=2;" parent="WIyWlLk6GJQsqaUBKTNV-1" source="GGgyJeZRFEDgUU8fPMDe-41" target="GGgyJeZRFEDgUU8fPMDe-40" edge="1">
          <mxGeometry relative="1" as="geometry" />
        </mxCell>
        <mxCell id="GGgyJeZRFEDgUU8fPMDe-69" style="edgeStyle=orthogonalEdgeStyle;rounded=0;orthogonalLoop=1;jettySize=auto;html=1;exitX=0.5;exitY=1;exitDx=0;exitDy=0;entryX=0.603;entryY=-0.007;entryDx=0;entryDy=0;entryPerimeter=0;endArrow=none;endFill=0;strokeWidth=2;" parent="WIyWlLk6GJQsqaUBKTNV-1" source="GGgyJeZRFEDgUU8fPMDe-39" target="GGgyJeZRFEDgUU8fPMDe-38" edge="1">
          <mxGeometry relative="1" as="geometry" />
        </mxCell>
        <mxCell id="GGgyJeZRFEDgUU8fPMDe-72" style="edgeStyle=orthogonalEdgeStyle;rounded=0;orthogonalLoop=1;jettySize=auto;html=1;exitX=0.5;exitY=1;exitDx=0;exitDy=0;entryX=0.603;entryY=0;entryDx=0;entryDy=0;entryPerimeter=0;endArrow=none;endFill=0;strokeWidth=2;" parent="WIyWlLk6GJQsqaUBKTNV-1" source="GGgyJeZRFEDgUU8fPMDe-36" target="GGgyJeZRFEDgUU8fPMDe-35" edge="1">
          <mxGeometry relative="1" as="geometry" />
        </mxCell>
        <mxCell id="GGgyJeZRFEDgUU8fPMDe-73" style="edgeStyle=orthogonalEdgeStyle;rounded=0;orthogonalLoop=1;jettySize=auto;html=1;exitX=0.5;exitY=0;exitDx=0;exitDy=0;entryX=0;entryY=0;entryDx=30;entryDy=40;entryPerimeter=0;endArrow=none;endFill=0;strokeWidth=2;" parent="WIyWlLk6GJQsqaUBKTNV-1" source="GGgyJeZRFEDgUU8fPMDe-28" target="GGgyJeZRFEDgUU8fPMDe-35" edge="1">
          <mxGeometry relative="1" as="geometry">
            <Array as="points">
              <mxPoint x="240" y="680" />
            </Array>
          </mxGeometry>
        </mxCell>
        <mxCell id="GGgyJeZRFEDgUU8fPMDe-74" style="edgeStyle=orthogonalEdgeStyle;rounded=0;orthogonalLoop=1;jettySize=auto;html=1;exitX=0.5;exitY=0;exitDx=0;exitDy=0;entryX=0;entryY=0;entryDx=30;entryDy=40;entryPerimeter=0;endArrow=none;endFill=0;strokeWidth=2;" parent="WIyWlLk6GJQsqaUBKTNV-1" source="yU7wOXFloIceunH0MPtO-18" target="GGgyJeZRFEDgUU8fPMDe-27" edge="1">
          <mxGeometry relative="1" as="geometry" />
        </mxCell>
        <mxCell id="GGgyJeZRFEDgUU8fPMDe-75" style="edgeStyle=orthogonalEdgeStyle;rounded=0;orthogonalLoop=1;jettySize=auto;html=1;exitX=0.5;exitY=1;exitDx=0;exitDy=0;entryX=0.598;entryY=0.014;entryDx=0;entryDy=0;entryPerimeter=0;endArrow=none;endFill=0;strokeWidth=2;" parent="WIyWlLk6GJQsqaUBKTNV-1" source="GGgyJeZRFEDgUU8fPMDe-29" target="GGgyJeZRFEDgUU8fPMDe-27" edge="1">
          <mxGeometry relative="1" as="geometry" />
        </mxCell>
        <mxCell id="GGgyJeZRFEDgUU8fPMDe-78" style="edgeStyle=orthogonalEdgeStyle;rounded=0;orthogonalLoop=1;jettySize=auto;html=1;exitX=0.5;exitY=0;exitDx=0;exitDy=0;entryX=0;entryY=0;entryDx=30;entryDy=40;entryPerimeter=0;endArrow=none;endFill=0;strokeWidth=2;" parent="WIyWlLk6GJQsqaUBKTNV-1" source="GGgyJeZRFEDgUU8fPMDe-31" target="GGgyJeZRFEDgUU8fPMDe-33" edge="1">
          <mxGeometry relative="1" as="geometry" />
        </mxCell>
        <mxCell id="GGgyJeZRFEDgUU8fPMDe-79" style="edgeStyle=orthogonalEdgeStyle;rounded=0;orthogonalLoop=1;jettySize=auto;html=1;entryX=0;entryY=0;entryDx=30;entryDy=40;entryPerimeter=0;endArrow=none;endFill=0;strokeWidth=2;exitX=0.598;exitY=0.013;exitDx=0;exitDy=0;exitPerimeter=0;" parent="WIyWlLk6GJQsqaUBKTNV-1" source="GGgyJeZRFEDgUU8fPMDe-33" target="GGgyJeZRFEDgUU8fPMDe-34" edge="1">
          <mxGeometry relative="1" as="geometry">
            <mxPoint x="330" y="390" as="sourcePoint" />
          </mxGeometry>
        </mxCell>
        <mxCell id="GGgyJeZRFEDgUU8fPMDe-85" value="+" style="edgeStyle=orthogonalEdgeStyle;rounded=1;orthogonalLoop=1;jettySize=auto;html=1;exitX=1;exitY=0.5;exitDx=0;exitDy=0;curved=0;endArrow=none;endFill=0;labelBackgroundColor=#1A1A1A;" parent="WIyWlLk6GJQsqaUBKTNV-1" source="GGgyJeZRFEDgUU8fPMDe-36" edge="1">
          <mxGeometry relative="1" as="geometry">
            <mxPoint x="300" y="600" as="targetPoint" />
            <Array as="points">
              <mxPoint x="300" y="600" />
            </Array>
            <mxPoint as="offset" />
          </mxGeometry>
        </mxCell>
        <mxCell id="GGgyJeZRFEDgUU8fPMDe-86" value="+" style="edgeStyle=orthogonalEdgeStyle;curved=0;rounded=1;orthogonalLoop=1;jettySize=auto;html=1;strokeColor=default;align=center;verticalAlign=middle;fontFamily=Helvetica;fontSize=11;fontColor=default;labelBackgroundColor=#1A1A1A;endArrow=none;endFill=0;" parent="WIyWlLk6GJQsqaUBKTNV-1" edge="1">
          <mxGeometry x="0.6364" relative="1" as="geometry">
            <mxPoint x="270" y="470" as="sourcePoint" />
            <mxPoint x="300" y="490" as="targetPoint" />
            <Array as="points">
              <mxPoint x="270" y="490" />
              <mxPoint x="300" y="490" />
            </Array>
            <mxPoint as="offset" />
          </mxGeometry>
        </mxCell>
        <mxCell id="GGgyJeZRFEDgUU8fPMDe-91" value="noisy image&lt;div&gt;1Ã—28Ã—28&lt;/div&gt;" style="rounded=1;whiteSpace=wrap;html=1;fillColor=none;dashed=1;dashPattern=1 1;strokeWidth=2;" parent="WIyWlLk6GJQsqaUBKTNV-1" vertex="1">
          <mxGeometry x="200" y="270" width="80" height="40" as="geometry" />
        </mxCell>
        <mxCell id="GGgyJeZRFEDgUU8fPMDe-101" style="edgeStyle=orthogonalEdgeStyle;curved=0;rounded=1;orthogonalLoop=1;jettySize=auto;html=1;exitX=0.5;exitY=1;exitDx=0;exitDy=0;entryX=0.592;entryY=0;entryDx=0;entryDy=0;entryPerimeter=0;strokeColor=default;align=center;verticalAlign=middle;fontFamily=Helvetica;fontSize=11;fontColor=default;labelBackgroundColor=default;endArrow=none;endFill=0;startArrow=openAsync;startFill=0;strokeWidth=2;" parent="WIyWlLk6GJQsqaUBKTNV-1" source="yU7wOXFloIceunH0MPtO-3" target="GGgyJeZRFEDgUU8fPMDe-34" edge="1">
          <mxGeometry relative="1" as="geometry">
            <mxPoint x="330" y="230" as="sourcePoint" />
          </mxGeometry>
        </mxCell>
        <mxCell id="GGgyJeZRFEDgUU8fPMDe-102" value="U-NET" style="rounded=0;whiteSpace=wrap;html=1;fontFamily=Helvetica;fontSize=16;fontColor=default;labelBackgroundColor=none;strokeColor=none;fillColor=none;" parent="WIyWlLk6GJQsqaUBKTNV-1" vertex="1">
          <mxGeometry x="365" y="360" width="60" height="20" as="geometry" />
        </mxCell>
        <mxCell id="GGgyJeZRFEDgUU8fPMDe-103" value="CNN" style="rounded=0;whiteSpace=wrap;html=1;fontFamily=Helvetica;fontSize=16;fontColor=default;labelBackgroundColor=none;strokeColor=none;fillColor=none;" parent="WIyWlLk6GJQsqaUBKTNV-1" vertex="1">
          <mxGeometry x="530" y="280" width="40" height="20" as="geometry" />
        </mxCell>
        <mxCell id="GGgyJeZRFEDgUU8fPMDe-104" value="SAE" style="rounded=0;whiteSpace=wrap;html=1;fontFamily=Helvetica;fontSize=16;fontColor=default;labelBackgroundColor=none;strokeColor=none;fillColor=none;" parent="WIyWlLk6GJQsqaUBKTNV-1" vertex="1">
          <mxGeometry x="455" y="560" width="40" height="20" as="geometry" />
        </mxCell>
        <mxCell id="GGgyJeZRFEDgUU8fPMDe-108" value="CONDITIONING" style="rounded=0;whiteSpace=wrap;html=1;fontFamily=Helvetica;fontSize=13;fontColor=default;labelBackgroundColor=none;strokeColor=none;fillColor=none;" parent="WIyWlLk6GJQsqaUBKTNV-1" vertex="1">
          <mxGeometry x="410" y="700" width="60" height="20" as="geometry" />
        </mxCell>
        <mxCell id="yU7wOXFloIceunH0MPtO-1" value="&lt;div&gt;&lt;br&gt;&lt;/div&gt;&lt;div&gt;&lt;br&gt;&lt;/div&gt;&lt;div&gt;&lt;br&gt;&lt;/div&gt;&lt;div&gt;&lt;br&gt;&lt;/div&gt;&lt;div&gt;&lt;span style=&quot;background-color: initial;&quot;&gt;dataset image&lt;/span&gt;&lt;br&gt;&lt;/div&gt;&lt;div&gt;1Ã—28Ã—28&lt;/div&gt;" style="rounded=1;whiteSpace=wrap;html=1;fillColor=none;dashed=1;dashPattern=1 1;strokeWidth=2;" parent="WIyWlLk6GJQsqaUBKTNV-1" vertex="1">
          <mxGeometry x="400" y="140" width="80" height="100" as="geometry" />
        </mxCell>
        <mxCell id="yU7wOXFloIceunH0MPtO-0" value="" style="shape=image;imageAspect=0;aspect=fixed;verticalLabelPosition=bottom;verticalAlign=top;image=data:image/png,iVBORw0KGgoAAAANSUhEUgAAAOEAAADgCAMAAADCMfHtAAAAgVBMVEUAAAD+/v5xcXHGxsa5ublDQ0MSEhI0NDQ8PDy2trYlJSX7+/vh4eE+Pj55eXnDw8Pb29vx8fEJCQlTU1Pp6ekPDw/Nzc2qqqqFhYUfHx/y8vJNTU2fn59ISEgxMTHr6+uMjIyXl5dfX19ubm4qKirT09MYGBicnJxeXl6Pj4+urq6lDbV7AAAGyElEQVR4nO2dCXeiShBGHZWIG2rc1yiCS/7/DxyhvvK89IQXWRroTl2TOYc5Ebg20lt10bifmzbjjxrnht10G82qT0Ez7V9gGFR9Cpr5DWUohqYjhuYjhuYjhuYjhuYjhuYjhuYjhuYjhuYjhuYjhuYjhuYjhuYjhuYjhuYjhuYjhuYjhuYjhuYj8TTmI4bmI4bmI4bmI4bmI4bmk96w48QMm9dTzIrxYlbbAxGsibmW836d9IbOlLiP2jHLHXE9PZQf//juMObQI960nPfrZDbc3tuqYczDMMZiwxsZuvYa/poyFMPSSG/o7mOcVZfYncA95jRd18OMSW+4DGMWs/7mWyYfxGxAjLq5aF+J3T6gela/YRdnPvnz//AHELZysVgSn9NDJ6Y0w/GPhpOYvIYtMRRDMfyVhqgGNj8bbqJXOAI441E6IsNdpBjVFkEptcUZ3cETPlzU9Pcrtts4tfGMQPU4GQP+jyQG+Dt+H+/mSOvrvXfthgfq/rnTM7F9bDiP3xu272jFjVDWfZQptwCSyr4PPsjo+T5meaQ2k35D9PGdG5IWTKkVt/dp83yCYUu5ml82HMy+fDLM7hhzt8Lw2zKs3vBWmGFEHQ2LLMNBLcuwOMPoMq3ye+juydCn0UPvtt9uox9sN7nWWOB2z2eIe+QsQfDJBu/7914a3UyPJdxL3y4EOrq9tbL9aHq4j1eHxwJ8LustwdsqqGzON3qfM6Y20bPphDw6JdSHL4NTOQxpVIP7/KhP/6ED1u8xjXDy9Ro4+vQJ1Mfw/S1mzt/byzzmnbdVMAjp9uh9Yvgy+uJp6mNofxmKYVYSDfffG/I9tUd/1wiV+vROgs0aGQKuJ+fKtgqmG9eduC82DAZo46Ap9MGzdmnPo35zwEPU+Nz4WTwIw8V4T59Z6gnX+hvSEHs43uOyT7s/cwy31hvaX4ZimET9DDv7vfP46Qz+YzgehwPzv4dvENiFixjuAXtRp7DpeQFq2LT7rZEhdaQb3cnXPj46ztNLxv3W0BDDHWyIACUxTEQMy0MMzTdE5yrRcJ1xv/UxnPq+f7v508XXOJ0/6Bg7WSOQ6mPoIQ53jLKbfEyin34Askbi1sewqRoSbHiw1/BgvaFcpT9Rf0N7rtIz5h/ZkGuLA6IuzTXskcClhUAaniM+Yf0G+o1vqTuGoHpDzC/2Bpjn5jHuM0V5uXn3XwNDTFfwGDcrnjOOcauIoX5+MHTy7r9+hn+sN7SvDAOEYKhl2LTGkCONeCp0TOGpCyfjCLBK9YaIyPXYMKTFRqPcN1FQvaGfaJhtjFvlNxhWnZ9GyjDv/sVQP/8a0joL8w15BBhrUbsTVPhLRAb1CjpO9YY8I7qB4RGNnKLWoNbHkMvwjoaqfYbPMrTeEGU4tN7Q/jK0wJC5kmDradix5SrlNTYhzRf2F1hReW7kGx9Vqc5QHcVHZoL2reDjVGkYjWh7tht61pehZ38ZimF+qjPEfOGZDVvo+foFH6d8w4CaLMEIwb8fNBPaP2J9Ye7pNIXyDV2KF3U5ynmD2Wyf5no7WaO7kqjSkJppT0NqrblZo7uSEMPiEUMxTEv5hljLHXDsBeJm+mfjDedYOXlCDh6Omwm7VNM7cwoSLqpfyJRoiAnPT2Rh4sne1o5yMKROj/QiVRhS7JNi+CmGWRHD4hBD8w2ZpWqIjHNF95qY8gxXlNjtGKIRw/nYrsiVUNR8oUp5hm2eRUPZoSgHzXdK4FN0Tf88bnmGGL1XDb0L5VQQw8zHbaROtZj1SFKGuo4rhoXRXVD+Uo6bQYa6mfmGF0o70xhzZx6GJy+efFo570jNo+n4+g2RcaehJttrOnEywq2ump6p0HBPmQTsN9Qd/Vm9of1lKIZ5Ka8+VA29La2zN/d7+IZ6cKnkm+muKJfsYV5s3EwS+g27Sl7vJWZCdV+dTAmGAzHUixhmRwzNN5xfvp9rWjYpkMZ8wz0Ng/qcb4Zr+pNDk8BFR5Ukoc9wevwaP8ocKcVAp6wnP2o0XCUYYsWIGBaFGGZHDG0w/Boha48hBIJrwpOvzDc8DIfu43VYoqZXnzVigyE9LBeGEzHUjRim53cZRk8HtM+QVxsso9m0zcTCMtz6Mbe2kp0MiVcnXi9fDr20FG/IGXVaStk9Z7XXQe/xCnSPBDP6DEfJhjFiWBTFx9O8YNizvgzFsFDKM3zGz6zzZc1Ni37DGUdZTm8xB4qfKSqhwI/oNxzQBGlYVP61tJRnyDn0yvr+MWKYHjEUw6LRZuhx32KAJ1LZY+jSI56d5onAwLDX4wciFny8n6g+x5BuxNB8xNB8xNB82n8B0JqQNXS7T9EAAAAASUVORK5CYII=;imageBorder=none;dashed=1;dashPattern=1 1;clipPath=inset(20.54% 18.44% 1.34% 16.67%);" parent="WIyWlLk6GJQsqaUBKTNV-1" vertex="1">
          <mxGeometry x="417.56" y="150" width="44.88" height="53.79" as="geometry" />
        </mxCell>
        <mxCell id="yU7wOXFloIceunH0MPtO-3" value="&lt;div&gt;dataset image&lt;/div&gt;&lt;div&gt;with&amp;nbsp;&lt;span style=&quot;background-color: initial;&quot;&gt;generated&lt;/span&gt;&lt;/div&gt;&lt;div&gt;noise&lt;/div&gt;&lt;div&gt;1Ã—28Ã—28&lt;/div&gt;" style="rounded=1;whiteSpace=wrap;html=1;fillColor=none;dashed=1;dashPattern=1 1;strokeWidth=2;" parent="WIyWlLk6GJQsqaUBKTNV-1" vertex="1">
          <mxGeometry x="285" y="170" width="90" height="70" as="geometry" />
        </mxCell>
        <mxCell id="yU7wOXFloIceunH0MPtO-11" style="edgeStyle=orthogonalEdgeStyle;rounded=1;orthogonalLoop=1;jettySize=auto;html=1;exitX=0.5;exitY=1;exitDx=0;exitDy=0;entryX=0.542;entryY=-0.007;entryDx=0;entryDy=0;entryPerimeter=0;endArrow=openAsync;endFill=0;strokeWidth=2;curved=0;" parent="WIyWlLk6GJQsqaUBKTNV-1" source="yU7wOXFloIceunH0MPtO-1" target="GGgyJeZRFEDgUU8fPMDe-2" edge="1">
          <mxGeometry relative="1" as="geometry">
            <Array as="points">
              <mxPoint x="440" y="250" />
              <mxPoint x="480" y="250" />
              <mxPoint x="480" y="320" />
              <mxPoint x="547" y="320" />
            </Array>
          </mxGeometry>
        </mxCell>
        <mxCell id="yU7wOXFloIceunH0MPtO-13" style="edgeStyle=orthogonalEdgeStyle;rounded=0;orthogonalLoop=1;jettySize=auto;html=1;exitX=0.5;exitY=1;exitDx=0;exitDy=0;entryX=0.5;entryY=0;entryDx=0;entryDy=0;strokeWidth=2;endArrow=none;endFill=0;" parent="WIyWlLk6GJQsqaUBKTNV-1" source="yU7wOXFloIceunH0MPtO-12" target="GGgyJeZRFEDgUU8fPMDe-11" edge="1">
          <mxGeometry relative="1" as="geometry" />
        </mxCell>
        <mxCell id="yU7wOXFloIceunH0MPtO-12" value="&lt;div&gt;max&lt;/div&gt;&lt;div&gt;pool&lt;/div&gt;" style="rhombus;whiteSpace=wrap;html=1;fillColor=none;strokeWidth=2;" parent="WIyWlLk6GJQsqaUBKTNV-1" vertex="1">
          <mxGeometry x="520" y="390" width="60" height="50" as="geometry" />
        </mxCell>
        <mxCell id="yU7wOXFloIceunH0MPtO-14" style="edgeStyle=orthogonalEdgeStyle;rounded=0;orthogonalLoop=1;jettySize=auto;html=1;exitX=0.5;exitY=0;exitDx=0;exitDy=0;entryX=0;entryY=0;entryDx=30;entryDy=40;entryPerimeter=0;strokeColor=default;strokeWidth=2;align=center;verticalAlign=middle;fontFamily=Helvetica;fontSize=11;fontColor=default;labelBackgroundColor=default;endArrow=none;endFill=0;" parent="WIyWlLk6GJQsqaUBKTNV-1" source="yU7wOXFloIceunH0MPtO-12" target="GGgyJeZRFEDgUU8fPMDe-2" edge="1">
          <mxGeometry relative="1" as="geometry" />
        </mxCell>
        <mxCell id="yU7wOXFloIceunH0MPtO-19" style="edgeStyle=orthogonalEdgeStyle;rounded=0;orthogonalLoop=1;jettySize=auto;html=1;exitX=0;exitY=0;exitDx=20;exitDy=0;exitPerimeter=0;entryX=0.5;entryY=1;entryDx=0;entryDy=0;strokeColor=default;strokeWidth=2;align=center;verticalAlign=middle;fontFamily=Helvetica;fontSize=11;fontColor=default;labelBackgroundColor=default;endArrow=none;endFill=0;" parent="WIyWlLk6GJQsqaUBKTNV-1" source="yU7wOXFloIceunH0MPtO-16" target="yU7wOXFloIceunH0MPtO-18" edge="1">
          <mxGeometry relative="1" as="geometry" />
        </mxCell>
        <mxCell id="yU7wOXFloIceunH0MPtO-16" value="unet&lt;div&gt;up&lt;/div&gt;" style="shape=cube;whiteSpace=wrap;html=1;boundedLbl=1;backgroundOutline=1;darkOpacity=0.05;darkOpacity2=0.1;size=10;fillColor=none;strokeWidth=2;" parent="WIyWlLk6GJQsqaUBKTNV-1" vertex="1">
          <mxGeometry x="300" y="670" width="50" height="40" as="geometry" />
        </mxCell>
        <mxCell id="yU7wOXFloIceunH0MPtO-17" style="edgeStyle=orthogonalEdgeStyle;rounded=0;orthogonalLoop=1;jettySize=auto;html=1;exitX=1;exitY=0.5;exitDx=0;exitDy=0;entryX=-0.008;entryY=0.465;entryDx=0;entryDy=0;entryPerimeter=0;strokeColor=default;strokeWidth=2;align=center;verticalAlign=middle;fontFamily=Helvetica;fontSize=11;fontColor=default;labelBackgroundColor=default;endArrow=none;endFill=0;" parent="WIyWlLk6GJQsqaUBKTNV-1" source="GGgyJeZRFEDgUU8fPMDe-28" target="yU7wOXFloIceunH0MPtO-16" edge="1">
          <mxGeometry relative="1" as="geometry" />
        </mxCell>
        <mxCell id="yU7wOXFloIceunH0MPtO-18" value="256Ã—7Ã—7" style="rounded=1;whiteSpace=wrap;html=1;fillColor=none;dashed=1;dashPattern=1 1;strokeWidth=2;" parent="WIyWlLk6GJQsqaUBKTNV-1" vertex="1">
          <mxGeometry x="290" y="640" width="80" height="20" as="geometry" />
        </mxCell>
      </root>
    </mxGraphModel>
  </diagram>
</mxfile>
